<?xml version="1.0" encoding="utf-8"?>
<!-- Generator: Adobe Illustrator 25.1.0, SVG Export Plug-In . SVG Version: 6.00 Build 0)  -->
<svg version="1.1" id="Layer_1" xmlns="http://www.w3.org/2000/svg" xmlns:xlink="http://www.w3.org/1999/xlink" x="0px" y="0px"
	 viewBox="0 0 33.2 31.4" style="enable-background:new 0 0 33.2 31.4;" xml:space="preserve">
<path d="M16.6,6.9l1.9,5.8l0.4,1.5h1.5h6l-5,3.4l-1.3,0.9l0.4,1.5l1.9,5.8l-5-3.4l-1.3-0.9l-1.3,0.9l-5,3.4l1.9-5.8l0.4-1.5
	l-1.1-0.9l-4.7-3.4h6h1.5l0.4-1.5L16.6,6.9 M16.6,0l-3.9,12.1H0l10.3,7.5L6.2,31.4l10.3-7.5l10.3,7.5L23,19.4l10.1-7.3H20.5L16.6,0
	L16.6,0z"/>
</svg>
